Coordinates
version=1
nRows=17
nColumns=40
inDegrees=yes

Units are S.I. units (second, meters, Newtons, ...)
Angles are in degrees.

endheader
time	pelvis_tilt	pelvis_list	pelvis_rotation	pelvis_tx	pelvis_ty	pelvis_tz	hip_flexion_r	hip_adduction_r	hip_rotation_r	knee_angle_r	knee_angle_r_beta	ankle_angle_r	subtalar_angle_r	mtp_angle_r	hip_flexion_l	hip_adduction_l	hip_rotation_l	knee_angle_l	knee_angle_l_beta	ankle_angle_l	subtalar_angle_l	mtp_angle_l	lumbar_extension	lumbar_bending	lumbar_rotation	arm_flex_r	arm_add_r	arm_rot_r	elbow_flex_r	pro_sup_r	wrist_flex_r	wrist_dev_r	arm_flex_l	arm_add_l	arm_rot_l	elbow_flex_l	pro_sup_l	wrist_flex_l	wrist_dev_l
     23.37000000	     -4.13732029	     -2.70029600	      0.81926602	      1.12489152	      0.93402166	      0.41857917	     30.92402783	     -8.96401050	     -7.21491794	     77.33581017	     77.33581017	      5.04257693	    -15.69406996	      0.53631758	     13.87811434	     -3.11609285	    -14.07944624	     18.75334398	     18.75334398	     11.86030772	     -7.23758874	     -4.21183484	     -8.29906277	      3.66961589	      0.82894413	      0.89103215	    -13.94330567	     -8.42944975	     38.79406812	     45.58347273	      0.00000000	      0.00000000	     15.32926069	    -11.94003787	      2.66809528	     33.41146928	     45.33575424	      0.00000000	      0.00000000
     23.38128571	     -4.00998188	     -2.71143694	      0.79817782	      1.12415676	      0.93426612	      0.41810027	     32.12360739	     -8.99112013	     -7.02097220	     76.21957571	     76.21957571	      4.68669892	    -15.68623501	      0.68757455	     12.86637415	     -3.06050004	    -14.18175602	     18.29623827	     18.29623827	     12.23762495	     -6.90592368	     -4.54382787	     -8.40694090	      3.77161104	      1.15713152	     -1.34425405	    -13.94071151	     -8.49916397	     36.28146415	     45.67803149	      0.00000000	      0.00000000	     17.28077310	    -11.83446604	      2.46849789	     34.57878006	     45.40615765	      0.00000000	      0.00000000
     23.39257143	     -3.84476820	     -2.67661656	      0.78425241	      1.12355457	      0.93458197	      0.41762390	     33.07598512	     -9.01884015	     -6.80605939	     74.79599161	     74.79599161	      4.34799453	    -15.70444370	      0.65931093	     11.75733444	     -2.97891940	    -14.48900554	     17.73128649	     17.73128649	     12.43793430	     -6.27676343	     -5.38256979	     -8.51789612	      3.80757073	      0.86045793	     -1.91391811	    -13.38628373	    -10.16512565	     30.73230652	     46.02802621	      0.00000000	      0.00000000	     18.64081540	    -12.19038320	      1.97867398	     36.59299663	     45.54815986	      0.00000000	      0.00000000
     23.40385714	     -3.65617474	     -2.64242504	      0.75422381	      1.12296960	      0.93486632	      0.41715130	     33.88520667	     -9.06603451	     -6.66234890	     73.14981648	     73.14981648	      4.01466558	    -15.66534650	      1.01334048	     10.60261292	     -2.84550565	    -14.63315194	     17.10722172	     17.10722172	     12.83926706	     -5.89872024	     -5.45829726	     -8.71387381	      3.87629247	      1.15570148	     -4.15263874	    -13.34579501	    -10.39590603	     28.91823445	     46.10728685	      0.00000000	      0.00000000	     20.39948956	    -12.16471849	      1.70694250	     38.22697343	     45.62028925	      0.00000000	      0.00000000
     23.41514286	     -3.48537175	     -2.60513676	      0.73858047	      1.12238200	      0.93496274	      0.41677253	     34.57275464	     -9.09317310	     -6.57023238	     71.22828981	     71.22828981	      3.82738092	    -15.68791200	      1.59742512	      9.55965280	     -2.78814810	    -15.01968930	     16.66243158	     16.66243158	     13.21643706	     -5.13567693	     -5.98455266	     -8.88047761	      3.92644057	      0.72132969	     -4.60204583	    -12.91203679	    -12.68385972	     24.10589679	     46.52760632	      0.00000000	      0.00000000	     21.16764250	    -12.68640565	      1.04278653	     41.46156260	     45.77356062	      0.00000000	      0.00000000
     23.42642857	     -3.29090127	     -2.51040447	      0.69025522	      1.12184314	      0.93502445	      0.41646154	     35.09251077	     -9.12460149	     -6.46687362	     68.95660029	     68.95660029	      3.61374458	    -15.87243044	      2.04995394	      8.39144332	     -2.58717779	    -15.15551617	     16.00780550	     16.00780550	     13.58394073	     -4.76591567	     -6.01005756	     -9.11894848	      3.93483926	      0.99942051	     -6.65899190	    -12.89604494	    -13.05150315	     22.65009858	     46.61509316	      0.00000000	      0.00000000	     22.83594641	    -12.65537630	      0.75191975	     43.06189537	     45.84385691	      0.00000000	      0.00000000
     23.43771429	     -3.13982281	     -2.41493957	      0.65534923	      1.12130059	      0.93487779	      0.41620056	     35.48954365	     -9.18528461	     -6.50614252	     66.31711114	     66.31711114	      3.41265155	    -16.07213791	      2.51205430	      7.31506386	     -2.41046838	    -15.37818645	     15.42934106	     15.42934106	     13.94426140	     -4.26972727	     -6.19949813	     -9.28788062	      3.95090531	      1.15306165	     -8.42341307	    -12.81753033	    -13.58939847	     21.04118222	     46.73840249	      0.00000000	      0.00000000	     24.20925022	    -12.69818556	      0.40901151	     45.12347330	     45.91995912	      0.00000000	      0.00000000
     23.44900000	     -3.01059793	     -2.34132198	      0.60201526	      1.12081374	      0.93459641	      0.41608960	     35.73369780	     -9.16097676	     -6.61522151	     63.27513378	     63.27513378	      3.30374046	    -16.34702261	      2.95772973	      6.25721148	     -2.25844273	    -15.56929924	     14.85039770	     14.85039770	     14.30145391	     -3.83297022	     -6.38808410	     -9.45690442	      3.99025093	      1.21953316	    -10.05523250	    -12.82295571	    -14.03584707	     19.74049089	     46.84296804	      0.00000000	      0.00000000	     25.41413396	    -12.82739933	      0.06751365	     47.19635314	     45.99081601	      0.00000000	      0.00000000
     23.46028571	     -2.97356001	     -2.22009788	      0.53050193	      1.12029053	      0.93406410	      0.41606546	     35.89556721	     -9.21329541	     -6.90023480	     59.81772147	     59.81772147	      3.00175281	    -16.61438376	      2.80341229	      5.30942530	     -2.07726077	    -15.88491420	     14.27146407	     14.27146407	     14.50658198	     -3.31099733	     -6.99176354	     -9.59736498	      3.97112345	      0.53421595	    -10.77517597	    -12.75386947	    -16.33058872	     17.78618192	     47.27186515	      0.00000000	      0.00000000	     25.16414285	    -13.64952897	     -0.89612902	     52.13549486	     46.16457649	      0.00000000	      0.00000000
     23.47157143	     -3.01005354	     -2.18717270	      0.49405398	      1.11978097	      0.93334001	      0.41616959	     35.92394503	     -9.12473727	     -7.34760846	     55.98864161	     55.98864161	      3.06064307	    -16.65676164	      3.30741493	      4.47617719	     -1.96463133	    -15.89808388	     13.75971914	     13.75971914	     14.88139039	     -3.09138528	     -7.08494991	     -9.54383970	      4.05025874	      0.50460031	    -12.35763957	    -12.81361670	    -16.53533523	     17.09328221	     47.32024234	      0.00000000	      0.00000000	     26.48087437	    -13.78864989	     -1.14940363	     53.42185845	     46.21655410	      0.00000000	      0.00000000
     23.48285714	     -2.91887794	     -1.98063647	      0.28457127	      1.11954617	      0.93267097	      0.41649045	     35.66369097	     -9.04383620	     -7.65819256	     51.81913691	     51.81913691	      2.93383527	    -16.64163882	      3.21672058	      3.29659613	     -1.63168652	    -16.20767922	     12.91319546	     12.91319546	     15.07360056	     -2.68381604	     -7.39765634	     -9.77587965	      3.89539670	      1.01331323	    -14.14467561	    -12.76495471	    -17.40584652	     16.66275153	     47.46554376	      0.00000000	      0.00000000	     27.10849523	    -13.66815720	     -1.68725409	     57.24743656	     46.33134489	      0.00000000	      0.00000000
     23.49414286	     -2.88221590	     -1.96208661	      0.13880871	      1.11935429	      0.93183216	      0.41702408	     35.18459944	     -8.72750832	     -8.24452379	     47.28506596	     47.28506596	      2.95975326	    -16.32565929	      3.42388868	      2.31855561	     -1.54550144	    -16.34723947	     12.33867439	     12.33867439	     15.34048149	     -2.53979426	     -7.61614526	     -9.89217173	      3.95808803	      1.15342902	    -15.62727518	    -12.84748560	    -17.85678440	     16.39221057	     47.53581211	      0.00000000	      0.00000000	     27.91290780	    -13.82943808	     -2.07300560	     59.75105829	     46.41122989	      0.00000000	      0.00000000
     23.50542857	     -2.94176986	     -1.96408545	     -0.02063212	      1.11931047	      0.93068568	      0.41764151	     34.63209311	     -8.33556468	     -8.96419224	     42.55576512	     42.55576512	      2.92769708	    -15.50574622	      3.73101295	      1.44482949	     -1.47533085	    -16.40879860	     11.78994222	     11.78994222	     15.68707027	     -2.42772899	     -7.86075151	     -9.84080023	      4.07788351	      1.27351653	    -17.08272423	    -12.92755313	    -18.19223677	     16.24184751	     47.57893792	      0.00000000	      0.00000000	     28.55158906	    -13.91003817	     -2.38282516	     62.15294466	     46.48041246	      0.00000000	      0.00000000
     23.51671429	     -3.01284232	     -1.75851117	     -0.27448503	      1.11951080	      0.92923950	      0.41854175	     34.00166930	     -8.03134232	     -9.59556983	     37.81599925	     37.81599925	      2.66006493	    -14.32787151	      3.05117577	      0.46033000	     -1.14744140	    -16.55494740	     11.01722359	     11.01722359	     15.71178333	     -2.42990239	     -8.48317268	     -9.92686132	      3.86144058	      1.03477168	    -18.51341656	    -12.96877250	    -19.24060049	     17.31741082	     47.66546422	      0.00000000	      0.00000000	     27.91366851	    -14.61703563	     -3.25616230	     67.82938035	     46.65494890	      0.00000000	      0.00000000
     23.52800000	     -3.13457027	     -1.80634537	     -0.45042716	      1.11980075	      0.92761909	      0.41969499	     33.23892650	     -7.37659129	    -10.34064110	     33.09906547	     33.09906547	      2.66259803	    -12.75254414	      3.69132875	     -0.25160559	     -1.18505809	    -16.58919419	     10.70453908	     10.70453908	     16.11196976	     -2.53881592	     -8.67958393	     -9.75760016	      3.96337440	      1.17170691	    -19.59764303	    -12.98885037	    -19.38907907	     17.13255717	     47.68278336	      0.00000000	      0.00000000	     28.72384755	    -14.75378981	     -3.50991755	     69.36639182	     46.70780135	      0.00000000	      0.00000000
     23.53928571	     -3.08401639	     -1.80966394	     -0.67739465	      1.12050252	      0.92598816	      0.42106397	     32.26254074	     -6.73535452	    -11.14181563	     28.72029585	     28.72029585	      2.66583089	    -10.61860716	      4.40752133	     -1.23865677	     -1.15725965	    -16.66538242	     10.28586854	     10.28586854	     16.49594215	     -2.63068347	     -8.88311368	     -9.81450700	      3.99321897	      1.56511680	    -20.86653733	    -12.98531519	    -19.59405289	     17.13152565	     47.69442584	      0.00000000	      0.00000000	     29.24713423	    -14.73554714	     -3.76142427	     71.85790893	     46.77664398	      0.00000000	      0.00000000
     23.55057143	     -3.00171090	     -1.64714651	     -0.94591346	      1.12152296	      0.92407831	      0.42253156	     31.45879495	     -6.34218977	    -12.05417557	     25.21418804	     25.21418804	      3.06753184	     -7.72364305	      5.67705360	     -2.37832874	     -0.89205132	    -16.67720125	      9.65366733	      9.65366733	     16.69245744	     -2.89986210	     -9.15839840	    -10.00887167	      3.82694825	      1.44613244	    -22.11383506	    -13.02091047	    -20.18048866	     18.41261812	     47.68623920	      0.00000000	      0.00000000	     28.54496673	    -15.33095356	     -4.43383560	     77.17769109	     46.93913941	      0.00000000	      0.00000000
